<svg width="400" height="400" viewBox="0 0 400 400" xmlns="http://www.w3.org/2000/svg">
  <defs>
    <linearGradient id="grad1" x1="0%" y1="0%" x2="100%" y2="100%">
      <stop offset="0%" style="stop-color:#4F46E5;stop-opacity:0.2" />
      <stop offset="100%" style="stop-color:#4F46E5;stop-opacity:0.1" />
    </linearGradient>
  </defs>
  
  <!-- Background Elements -->
  <circle cx="200" cy="200" r="180" fill="url(#grad1)" />
  <circle cx="200" cy="200" r="150" fill="none" stroke="#4F46E5" stroke-width="2" opacity="0.1" />
  
  <!-- Car Body -->
  <path d="M120 250 L280 250 L260 220 L140 220 Z" fill="#4F46E5" opacity="0.8" />
  <path d="M140 220 L260 220 L240 190 L160 190 Z" fill="#4F46E5" opacity="0.6" />
  
  <!-- Windows -->
  <path d="M160 190 L240 190 L220 160 L180 160 Z" fill="#4F46E5" opacity="0.4" />
  
  <!-- Wheels -->
  <circle cx="160" cy="250" r="20" fill="#4F46E5" opacity="0.9" />
  <circle cx="240" cy="250" r="20" fill="#4F46E5" opacity="0.9" />
  
  <!-- Decorative Elements -->
  <circle cx="200" cy="200" r="5" fill="#4F46E5" opacity="0.5" />
  <circle cx="180" cy="180" r="3" fill="#4F46E5" opacity="0.3" />
  <circle cx="220" cy="180" r="3" fill="#4F46E5" opacity="0.3" />
  
  <!-- AI Elements -->
  <path d="M100 150 Q150 100 200 150 T300 150" stroke="#4F46E5" stroke-width="2" fill="none" opacity="0.3" />
  <path d="M100 170 Q150 120 200 170 T300 170" stroke="#4F46E5" stroke-width="2" fill="none" opacity="0.2" />
</svg> 